<svg class="logo-desktop" height="14" version="1.1" width="281" xmlns="http://www.w3.org/2000/svg"><g fill="none" fill-rule="evenodd" id="Site" stroke="none" stroke-width="1"><g fill="#111820" id="my-account-md" transform="translate(-20 -25)"><g id="Group-12" transform="translate(-317)"><g id="Group-8" transform="translate(317)"><g id="navbar-scrolled"><g id="CBTL_logoNew_TextHorizontal_black6C" transform="translate(20 25)"><path id="Fill-1" d="M6.372 3.153v9.645H3.435V3.153H0V.647h9.807v2.506H6.372"/><path id="Fill-4" d="M19.683 12.798v-5.08h-4.74v5.08h-2.937V.648h2.937v4.599h4.74v-4.6h2.938v12.151h-2.938"/><path id="Fill-5" d="M25.643 12.798V.648h8.176v2.47h-5.342v2.3h5.05V7.77h-5.05v2.523h5.651v2.505h-8.485"/><path d="M51.475 12.584c-.79.36-1.7.541-2.73.541a7.14 7.14 0 01-2.602-.463 6.113 6.113 0 01-2.07-1.313A6.092 6.092 0 0142.7 9.315c-.332-.79-.498-1.66-.498-2.61 0-.972.169-1.853.507-2.642a5.866 5.866 0 011.4-2.017A6.188 6.188 0 0146.202.767a7.397 7.397 0 012.593-.446c.86 0 1.703.152 2.533.455.83.303 1.504.746 2.02 1.33l-1.993 1.991a2.466 2.466 0 00-1.082-.841 3.599 3.599 0 00-1.374-.275 3.48 3.48 0 00-1.417.284 3.32 3.32 0 00-1.108.78c-.31.333-.55.724-.722 1.176a4.136 4.136 0 00-.258 1.485c0 .55.086 1.052.258 1.51.172.458.41.85.713 1.175a3.19 3.19 0 001.09.765c.424.182.888.274 1.391.274.585 0 1.094-.114 1.53-.343a2.967 2.967 0 001.047-.892l2.044 1.922a5.788 5.788 0 01-1.993 1.467" id="Fill-6"/><path d="M64.907 6.672c0-.526-.086-1.02-.257-1.477a3.513 3.513 0 00-.714-1.175 3.278 3.278 0 00-1.098-.773 3.482 3.482 0 00-1.417-.283 3.42 3.42 0 00-1.409.283A3.321 3.321 0 0058.2 5.195a4.3 4.3 0 00-.249 1.477c0 .549.086 1.055.258 1.519.171.463.409.86.713 1.192.303.332.666.593 1.09.781.424.19.893.283 1.409.283.515 0 .984-.094 1.408-.283.423-.188.79-.449 1.1-.78.309-.332.549-.73.72-1.193a4.35 4.35 0 00.258-1.52zm3.144 0c0 .96-.167 1.839-.499 2.634a6.001 6.001 0 01-1.383 2.043 6.155 6.155 0 01-2.104 1.313 7.394 7.394 0 01-2.644.463c-.951 0-1.83-.155-2.637-.463a6.176 6.176 0 01-2.095-1.313 6.001 6.001 0 01-1.383-2.043c-.332-.795-.498-1.673-.498-2.634 0-.973.166-1.851.498-2.635a5.768 5.768 0 011.383-2 6.156 6.156 0 012.095-1.27 7.57 7.57 0 012.637-.446c.95 0 1.831.149 2.644.446a6.14 6.14 0 012.104 1.27 5.771 5.771 0 011.383 2c.332.784.499 1.662.499 2.635z" id="Fill-7"/><path id="Fill-8" d="M73.408 3.153v2.506h4.707v2.42h-4.707v4.72h-2.902V.646h8.004v2.506h-5.102"/><path id="Fill-9" d="M84.161 3.153v2.506h4.706v2.42h-4.706v4.72h-2.902V.646h8.003v2.506h-5.101"/><path id="Fill-10" d="M92.01 12.798V.648h8.175v2.47h-5.341v2.3h5.05V7.77h-5.05v2.523h5.651v2.505H92.01"/><path id="Fill-11" d="M103.295 12.798V.648h8.175v2.47h-5.342v2.3h5.05V7.77h-5.05v2.523h5.652v2.505h-8.485"/><path d="M126.963 8.989c0-.504-.19-.853-.567-1.048-.378-.194-.882-.292-1.511-.292h-1.632v2.781h1.649c.229 0 .466-.02.712-.06.247-.04.47-.112.67-.214.2-.103.364-.25.49-.438.126-.189.189-.432.189-.73zm-.395-4.823c0-.412-.158-.713-.473-.901-.315-.19-.78-.284-1.4-.284h-1.442v2.506h1.58c.55 0 .976-.112 1.28-.334.303-.224.455-.553.455-.987zm3.332 5.097c0 .664-.132 1.221-.395 1.674a3.135 3.135 0 01-1.048 1.09 4.57 4.57 0 01-1.485.592c-.556.12-1.126.18-1.71.18h-4.843V.646h4.844c.469 0 .95.05 1.442.146.492.097.939.264 1.34.498.4.234.727.552.979.952.252.4.378.91.378 1.528 0 .675-.183 1.233-.55 1.673-.366.44-.847.758-1.442.953v.034c.343.057.666.163.97.318a2.762 2.762 0 011.323 1.433c.131.32.197.68.197 1.081z" id="Fill-12"/><path id="Fill-13" d="M132.7 12.798V.648h8.175v2.47h-5.342v2.3h5.05V7.77h-5.05v2.523h5.652v2.505H132.7"/><path d="M149.308 3.891l-1.546 4.17h3.058l-1.512-4.17zm3.264 8.907l-.945-2.385h-4.706l-.894 2.385h-3.194l5.101-12.15h2.85l5.05 12.15h-3.262z" id="Fill-14"/><path id="Fill-15" d="M165.436 12.798l-4.895-7.946h-.052l.069 7.946h-2.85V.648h3.348l4.878 7.929h.052l-.069-7.93h2.851v12.151h-3.332"/><path d="M180.11 2.467a.746.746 0 00-.21-.534c-.138-.146-.328-.22-.568-.22a.788.788 0 00-.564.214.714.714 0 00-.226.54c0 .194.052.38.157.558a1.9 1.9 0 00.458.51c.264-.108.488-.25.674-.43a.85.85 0 00.28-.638zm-1.463 2.822a1.895 1.895 0 00-.61.389c-.175.166-.262.404-.262.714 0 .162.033.307.099.435.065.128.15.236.255.325.105.09.223.157.354.203.132.047.268.07.407.07.256 0 .484-.054.686-.162.201-.109.375-.264.523-.465l-1.452-1.51zm3.357 3.47l-.778-.8a3.223 3.223 0 01-.97.691c-.383.182-.862.273-1.436.273a4.14 4.14 0 01-1.092-.145 2.804 2.804 0 01-.946-.453 2.338 2.338 0 01-.663-.766c-.166-.306-.25-.668-.25-1.086a2.168 2.168 0 01.517-1.428c.16-.186.343-.348.553-.488.209-.139.425-.259.65-.36a3.203 3.203 0 01-.616-.812 2.064 2.064 0 01-.232-.976c0-.371.077-.689.232-.952.155-.263.355-.48.599-.65.244-.17.518-.294.825-.372.305-.077.61-.115.911-.115.31 0 .616.04.919.121.301.081.571.207.807.378.236.17.426.387.57.65.142.263.214.576.214.94a1.902 1.902 0 01-.482 1.295 2.78 2.78 0 01-.529.47c-.2.14-.414.267-.639.383l1.034 1.057.825-1.266h2.115l-1.778 2.38 2.046 2.032h-2.406z" id="Fill-16"/><path id="Fill-17" d="M196.09 3.153v9.645h-2.938V3.153h-3.435V.647h9.807v2.506h-3.435"/><path id="Fill-18" d="M201.723 12.798V.648h8.175v2.47h-5.341v2.3h5.05V7.77h-5.05v2.523h5.65v2.505h-8.484"/><path d="M218.331 3.891l-1.545 4.17h3.057l-1.512-4.17zm3.264 8.907l-.945-2.385h-4.706l-.893 2.385h-3.194l5.1-12.15h2.851l5.05 12.15h-3.263z" id="Fill-19"/><path id="Fill-20" d="M232.261 12.798V.648h2.954v9.594h4.707v2.556h-7.66"/><path id="Fill-21" d="M242.498 12.798V.648h8.175v2.47h-5.341v2.3h5.05V7.77h-5.05v2.523h5.65v2.505h-8.484"/><path d="M259.106 3.891l-1.545 4.17h3.057l-1.512-4.17zm3.264 8.907l-.945-2.385h-4.706l-.893 2.385h-3.195l5.101-12.15h2.851l5.05 12.15h-3.263z" id="Fill-22"/><path id="Fill-23" d="M270.408 3.153v2.506h4.707v2.42h-4.707v4.72h-2.902V.646h8.004v2.506h-5.102"/><path id="Fill-24" d="M174.303 12.78h11.787v-1.514h-11.787z"/><path id="Fill-25" d="M276.968.647h1.502v.28h-.59V2.5h-.325V.927h-.587v-.28"/><path id="Fill-26" d="M278.68.647h.458l.511 1.451h.006l.499-1.451h.452V2.5h-.31V1.07h-.004l-.515 1.43h-.267l-.515-1.43h-.005V2.5h-.31V.648"/></g></g></g></g></g></g></svg>