<?xml version="1.0" encoding="utf-8"?>
<!-- Generator: Adobe Illustrator 26.5.0, SVG Export Plug-In . SVG Version: 6.00 Build 0)  -->
<svg version="1.1" id="Layer_1" xmlns="http://www.w3.org/2000/svg" xmlns:xlink="http://www.w3.org/1999/xlink" x="0px" y="0px"
	 viewBox="0 0 512 512" style="enable-background:new 0 0 512 512;" xml:space="preserve">
<style type="text/css">
	.st0{fill:#003874;}
	.st1{fill:#ED1C24;}
	.st2{fill:#FFFFFF;}
</style>
<g id="XMLID_1_">
	<path id="XMLID_3_" class="st0" d="M0,256c0-42.5,40.12-77.01,89.49-77.01s89.49,34.51,89.49,77.01s-40.12,77.01-89.49,77.01
		S0,298.5,0,256"/>
	<polyline id="XMLID_4_" class="st1" points="78.55,203.82 99.45,196.94 99.45,309.3 78.55,316.32 78.55,203.82 	"/>
	<path id="XMLID_8_" class="st1" d="M294.86,300.47c19.92,0,35.21-11.64,35.21-31.56c0-20.06-15.15-31.7-35.21-31.7
		c-19.92,0-35.21,11.64-35.21,31.7C259.65,288.82,274.94,300.47,294.86,300.47z M294.86,285.88c-9.68,0-13.61-8-13.61-16.97
		c0-9.12,3.93-17.11,13.61-17.11c9.68,0,13.61,8,13.61,17.11C308.46,277.88,304.53,285.88,294.86,285.88"/>
	<path id="XMLID_10_" class="st1" d="M328.1,253.19h11.92v24.69c0,14.45,4.49,22.72,23.29,22.72c5.19,0,9.12-0.7,13.19-1.12
		l-0.7-13.61c-2.1,0.28-4.35,0.84-6.45,0.84c-6.59,0-8.42-3.79-8.42-11.08v-22.44h14.59v-14.59h-14.59v-20.9L340.44,225v13.61H328.1
		V253.19"/>
	<polyline id="XMLID_11_" class="st1" points="448.88,299.06 469.78,299.06 469.78,269.19 469.92,269.19 486.75,299.06 512,299.06 
		489.28,266.38 510.32,238.61 487.31,238.61 469.92,264 469.78,264 469.78,217.71 448.88,224.86 448.88,299.06 	"/>
	<polyline id="XMLID_12_" class="st1" points="204.1,299.06 225,299.06 225,269.19 225.14,269.19 241.97,299.06 267.22,299.06 
		244.5,266.38 265.54,238.61 242.53,238.61 225.14,264 225,264 225,217.71 204.1,224.58 204.1,299.06 	"/>
	<path id="XMLID_15_" class="st1" d="M441.44,299.34c-0.98-4.77-1.12-9.68-1.12-14.45v-22.86c0-18.66-13.47-25.39-29.18-25.39
		c-9.12,0-16.97,1.26-24.41,4.35l0.42,14.31c5.89-3.23,12.62-4.63,19.5-4.63c7.57,0,13.89,2.24,14.03,10.52
		c-2.67-0.42-6.45-0.84-9.82-0.84c-11.22,0-31.56,2.24-31.56,20.9c0,13.33,10.8,19.22,22.86,19.22c8.7,0,14.59-3.37,19.36-11.08
		h0.28c0,3.23,0.42,6.31,0.42,9.68h19.22V299.34z M398.66,279.99c0-5.89,5.61-8.14,12.76-8.14c3.23,0,6.17,0.28,8.98,0.42
		c0,7.15-5.05,14.45-13.05,14.45C402.45,286.72,398.66,284.2,398.66,279.99"/>
	<path id="XMLID_18_" class="st2" d="M156.83,263.72c-1.96,16.13-10.94,32.26-30.72,32.4c-11.5,0-20.48-7.86-26.65-17.53v-11.22
		c7.72,3.93,15.01,8,23.85,8.14c10.94,0.14,20.76-4.07,24.83-11.78H156.83z M90.9,273.81c-8.98,10.94-17.81,22.02-34.09,22.02
		c-23.15,0-34.09-22.3-34.09-40.96c0-17.96,8.56-39.14,31.14-39.14c9.82,0,19.22,6.03,24.83,12.34v15.29
		c-4.63-3.09-15.15-6.17-22.02-6.31c-14.31-0.28-26.79,5.89-26.65,20.06c0.14,9.68,9.82,16.27,19.36,16.27
		c14.59,0,23.57-13.33,30.86-23.57c2.1-2.67,7.86-10.52,8.84-11.64c8.28-11.5,17.81-22.02,34.09-22.02
		c19.22,0,30.02,15.57,33.1,31.56h-8.7c-3.51-5.19-10.24-8.42-16.83-8.42c-15.15,0-24.13,13.89-31.7,24.13
		C99.03,263.29,93.14,271.29,90.9,273.81"/>
	<path id="XMLID_23_" class="st2" d="M225.14,269.19h-0.28v30.02H204.1v-29.6l-0.14,29.88h10.52H225l0.14-14.87l0.14-14.87
		l8.28,14.87l8.28,14.87h12.62c5.89,0,9.26-0.14,10.94-0.28h-23.43L225.14,269.19 M261.75,243.52l-17.25,22.86l20.76,29.88
		c-1.96-2.95-5.75-8.42-9.96-14.31l-10.8-15.57l10.24-13.47C257.4,249.27,259.93,245.9,261.75,243.52 M225,227.24V264h0.28
		l17.39-25.39h19.92c-2.1-0.14-5.19-0.14-8.84-0.14h-11.22l-8.56,12.62l-8.56,12.62l-0.14-22.86C225.14,235.8,225,231.03,225,227.24
		 M220.65,219.11c-1.82,0.56-4.07,1.26-6.59,2.1l-9.82,3.23l0,0L220.65,219.11"/>
	<path id="XMLID_24_" class="st1" d="M224.44,217.99L224.44,217.99c-0.14,0-1.68,0.42-3.79,1.12l-16.27,5.33l-0.14,37.45l0,0v7.57
		v29.6h20.9v-30.02h0.28l16.69,30.02h23.57c1.12-0.14,1.4-0.42,1.26-0.7c-0.14-0.14-0.56-0.98-1.54-2.24l-20.76-29.88l17.25-22.86
		c1.96-2.67,3.23-4.49,3.23-4.63c0-0.14-0.84-0.28-2.38-0.28h-19.92L225.14,264h-0.28v-36.75
		C224.86,221.63,224.58,217.99,224.44,217.99"/>
</g>
</svg>
