<svg xmlns="http://www.w3.org/2000/svg" viewBox="0 0 288.5 66.63"><defs><style>.a{fill:#28458e;}.b{fill:#0096d6;}.c{fill:#eb7b30;}.d{fill:#00984a;}.e{fill:#df002c;}</style></defs><title>PepsiCo logo - Brandlogos.net</title><path class="a" d="M441.8,522h6.68c2.61,0,3.6.9,3.6,3.1s-1,3-3.6,3H441.8Zm-10.34,22.27H441.8v-9.06h11.08c7.34,0,10-4.32,10-9.91,0-6.49-2.72-10.16-10.05-10.16H431.45Zm34.81-29.12h27.84v7.09h-17.5v3.92h16.25v7.1H476.61v3.91h17.5v7.1H466.27ZM508.78,522h6.68c2.6,0,3.6.9,3.6,3.1s-1,3-3.6,3h-6.68Zm-10.34,22.27h10.34v-9.06h11.08c7.34,0,10-4.32,10-9.91,0-6.49-2.72-10.16-10.05-10.16H498.44Zm41.41-12.36c-5.06-.86-7.15-4.12-7.15-8.2,0-7.55,6.64-9.58,15.15-9.58,11.66,0,16.47,3.38,16.84,9.54h-12a2.38,2.38,0,0,0-1.58-2.33,7.57,7.57,0,0,0-3.23-.61c-3.08,0-4.14.86-4.14,2.08a1.36,1.36,0,0,0,1.36,1.51l12.36,2c5.21.86,8.44,3.55,8.44,8.48,0,7.1-5.21,10.44-16.84,10.44-8,0-16.65-1.22-16.69-9.79h12.47a2.29,2.29,0,0,0,1.1,2.08,7.68,7.68,0,0,0,3.52.61c3.23,0,4.11-1,4.11-2.37a2,2,0,0,0-1.87-2Zm29.38-16.76h10.34v29.12H569.24ZM617.92,533c-.66,3.83-1.84,6.93-4.4,9.05s-6.49,3.3-12.8,3.3-17.9-.49-17.9-15.58,11.63-15.58,17.9-15.58,15.85.9,17.2,12.44H606.25c-.29-2.08-1.54-5.1-5.54-5.1-4.22,0-6.9,2.32-6.9,8.24s2.61,8.24,6.38,8.24c3.27,0,5.21-1.51,6.05-5h11.67Zm13.53-3.22c0-5.92,2.68-8.24,6.9-8.24s6.9,2.32,6.9,8.24-2.68,8.24-6.9,8.24-6.9-2.32-6.9-8.24Zm-11,0c0,15.09,11.63,15.58,17.9,15.58s17.9-.49,17.9-15.58-11.63-15.58-17.9-15.58-17.9.49-17.9,15.58ZM415.82,515.46c.67-14-11.38-29.7-27.81-31.65l0-.19c16.19,0,28.61,15,28.61,26.82a17.8,17.8,0,0,1-.56,5.09Zm-1,1.78a26.37,26.37,0,0,1-4,3.9c-2.92-16.8-15.26-31.48-24-35.77l-.19.13c8.78,7.2,19.24,21.19,23.31,36.3a34,34,0,0,1-6.68,3.83c-8.28-9.44-16-27.66-18.49-39.21l-.25.08c.06,11.22,8,30.26,17.73,39.56a33.48,33.48,0,0,1-6.91,1.91c-9.31-3.69-15.94-15.5-15.94-27.6a31.45,31.45,0,0,1,2.87-13.79l-.2-.08c-.56.85-4.09,5.74-4.09,14.27,0,13.68,6.75,24.13,15.7,27.43a30.83,30.83,0,0,1-9.6-.45l-.07.21a24.42,24.42,0,0,0,9.17,1.72,25.52,25.52,0,0,0,21.85-12.27Z" transform="translate(-367.75 -478.69)"/><path class="b" d="M392.09,478.69c-8.5,0-18.47,6.14-18.47,11.75,0,2.17,2,4,6.09,4,9.54,0,18.4-6.55,18.4-11.65C398.11,480.11,395.53,478.69,392.09,478.69Zm3.39,3.94c0,4.29-8.25,9.54-15.14,9.54-3,0-4.69-1.2-4.69-3.18,0-4.36,8.34-9.52,14.81-9.52C394.67,479.48,395.48,481.63,395.48,482.63Z" transform="translate(-367.75 -478.69)"/><path class="c" d="M370.23,493a9.51,9.51,0,0,0-1.2,4.21c0,3.56,3.6,6.87,10.22,6.87,12.73,0,27.44-9.37,27.44-18.07,0-3.9-3.7-6-6.26-6.47l0,.15a5.4,5.4,0,0,1,3.72,5.09c0,6.93-13,16.38-25.92,16.38-5,0-8.07-2.44-8.07-6a7,7,0,0,1,.3-2.08Z" transform="translate(-367.75 -478.69)"/><path class="d" d="M411.94,486.68a6.75,6.75,0,0,1,2.45,5.32c0,11.27-17.66,22.35-33.27,22.35-9.31,0-13.55-4.6-13.36-8.68h.17c.36,2.12,3.39,5.91,11.53,5.91,15.63,0,33.08-11.47,33.08-21.51a6.72,6.72,0,0,0-.73-3.27Z" transform="translate(-367.75 -478.69)"/><path class="e" d="M417.84,497.2a9.45,9.45,0,0,1,.45,3c0,12.54-17.87,23.27-33.41,23.27-8,0-12.18-3.89-13.06-5.46l.14-.11c2.21,1.94,6.57,3.41,11.66,3.41,13.73,0,34.21-10.44,34-24.07Z" transform="translate(-367.75 -478.69)"/></svg>