<?xml version="1.0" encoding="UTF-8"?><svg id="Layer_1" xmlns="http://www.w3.org/2000/svg" viewBox="0 0 132 55"><defs><style>.cls-1{fill-rule:evenodd;}</style></defs><path class="cls-1" d="M105.67.04l19.56,53.34h6.77v.38h-21.55v-.38h6.34l-6.43-17.54h-13.05s.07.21.07.21c.52,1.55.78,3.17.76,4.8v6.58c0,3.38,1.49,6.81,4.35,6.81,1.68,0,3.01-.59,4.6-2.05l.23.21c-1.73,1.83-3.82,2.6-6.96,2.6-2.37,0-4.4-.57-6.03-1.69l-.31-.22c-2.15-1.62-3.54-4.28-4.14-7.89l-.1-.58-.1-.88v-.15s-3.61,9.79-3.61,9.79h5.11v.38h-10.69v-.38h5.16l3.95-10.75v-.02c-.04-.63-.07-1.27-.07-1.91v-4.69c0-5.77-4.29-9.08-11.77-9.08h-7.35v26.46h6.37v.38h-24.9v-.38h6.35l-6.43-17.54h-17.85l-6.37,17.35.27-.04c8.37-1.44,12.21-7.83,12.26-14.55h.39v15.17H0L30.06,2.18h-12.09C7.95,2.18,3.42,9.92,3.35,17.64h-.39V1.8h36.49l-.22.38L9.4,53.37h15.69c.39,0,.78-.02,1.17-.05.26-.02.52-.04.79-.08h.09S46.7,0,46.7,0h.39v.04s15.38,41.92,15.38,41.92V2.18h-6.33v-.39h21.78c10.47,0,17.77,5.37,17.77,13.07,0,5.61-5,10.27-12.45,11.6l-1.37.17,1.38.14c4.51.52,8.1,1.91,10.64,4.13l.02.02L105.27,0h.39s.01.04.01.04ZM97.12,35.35l.04.09h13.06l-8.77-23.93-7.22,19.67.04.04.37.36c1.06,1.08,1.91,2.36,2.49,3.76h0ZM70.42,26.53V2.18h5.61c7.5,0,11.45,4.41,11.45,12.76,0,8.88-2.27,11.58-9.72,11.58,0,0-7.35,0-7.35,0ZM42.88,11.52l-8.79,23.93h17.56l-8.77-23.93h0Z"/></svg>